<?xml version="1.0" standalone="no"?>
<!DOCTYPE svg PUBLIC "-//W3C//DTD SVG 20010904//EN"
 "http://www.w3.org/TR/2001/REC-SVG-20010904/DTD/svg10.dtd">
<svg version="1.0" xmlns="http://www.w3.org/2000/svg"
 width="3333.000000pt" height="3333.000000pt" viewBox="0 0 3333.000000 3333.000000"
 preserveAspectRatio="xMidYMid meet">
<metadata>
Created by potrace 1.11, written by Peter Selinger 2001-2013
</metadata>
<g transform="translate(0.000000,3333.000000) scale(0.100000,-0.100000)"
fill="#000000" stroke="none">
<path d="M16984 28380 c-1559 -63 -2780 -345 -3568 -824 -237 -145 -445 -329
-497 -441 -58 -125 -79 -253 -79 -501 0 -204 -9 -268 -51 -370 -28 -68 -32
-72 -67 -77 -20 -3 -767 -88 -1659 -188 -1512 -171 -1626 -182 -1670 -170 -27
8 -57 13 -68 13 -39 -1 -2140 -255 -2145 -259 -2 -2 2 -8 10 -13 12 -8 12 -10
2 -10 -19 0 -3657 -411 -3658 -413 -1 -1 -43 -128 -94 -282 l-92 -280 -829
-1276 -829 -1277 300 -6090 c165 -3349 300 -6107 300 -6129 1 -29 8 -12 29 70
15 59 31 110 34 113 3 4 39 -45 80 -107 361 -555 1252 -1896 1263 -1902 34
-19 4031 -1770 4049 -1774 15 -3 237 203 955 887 514 489 937 890 940 890 3 0
383 -548 845 -1217 462 -669 849 -1226 860 -1238 l20 -22 1053 166 1052 165 0
39 c0 45 -1067 15599 -1075 15673 l-6 50 -107 39 c-194 69 -519 228 -615 300
-18 13 -17 27 26 369 24 196 47 359 50 362 3 3 46 -19 95 -49 49 -31 135 -78
191 -106 98 -50 301 -135 306 -129 2 2 -23 379 -55 838 -32 459 -55 838 -51
841 11 10 1783 201 1791 192 4 -4 39 -413 79 -908 40 -495 74 -901 75 -902 1
-1 67 24 146 56 162 65 382 173 509 250 47 28 88 48 91 44 12 -13 246 -327
253 -339 9 -15 -153 -203 -279 -324 -179 -171 -370 -312 -560 -412 l-99 -53
629 -7755 c346 -4265 630 -7756 630 -7757 1 -1 2238 348 4971 776 3352 524
4970 781 4973 789 2 7 -279 3309 -624 7337 l-629 7325 -50 16 c-117 39 -295
108 -432 169 -155 69 -423 212 -423 226 0 10 348 588 366 608 10 11 30 2 121
-53 102 -62 341 -181 348 -174 1 2 -39 491 -91 1088 -51 596 -92 1086 -90
1087 3 4 1860 210 1936 215 l34 3 108 -1065 c59 -586 108 -1078 110 -1093 l3
-28 110 70 c61 38 156 106 213 151 l103 80 113 -102 c63 -57 184 -166 269
-243 86 -77 156 -144 156 -149 3 -30 -290 -331 -434 -446 -95 -75 -268 -191
-345 -230 -30 -16 -63 -35 -74 -42 -18 -14 3 -228 705 -7209 397 -3957 724
-7196 726 -7199 7 -8 2278 352 2289 363 6 7 391 539 854 1182 484 672 843
1179 843 1190 -1 11 -232 2866 -514 6345 l-513 6325 -983 1207 c-540 664 -990
1222 -999 1240 -36 70 4 205 100 332 25 33 44 61 43 62 -1 1 -1337 197 -2969
434 l-2966 432 -276 -102 -275 -102 -148 126 c-104 88 -156 126 -173 126 -14
0 -502 -54 -1085 -120 -582 -66 -1063 -120 -1067 -120 -4 0 -8 62 -8 138 0
686 -215 1095 -632 1201 -75 19 -312 39 -758 61 -270 14 -1190 20 -1446 10z
m1626 -925 c91 -9 168 -19 171 -23 12 -13 107 -268 143 -380 44 -140 52 -182
36 -182 -6 0 -1166 -130 -2577 -290 -1412 -159 -2575 -290 -2586 -290 -18 0
-19 5 -14 48 3 26 14 133 23 238 l18 191 261 67 c1528 391 2701 590 3765 640
153 7 600 -4 760 -19z m-10585 -3069 c583 -71 1134 -242 1685 -522 113 -57
217 -114 232 -127 l27 -22 -679 -1755 c-373 -965 -682 -1761 -687 -1769 -7
-10 -370 529 -1297 1924 -708 1065 -1285 1939 -1283 1942 3 2 59 28 125 58
313 140 698 242 1037 275 61 5 128 12 150 14 92 9 568 -4 690 -18z m-3320
-589 c20 -20 36 -47 39 -68 3 -19 179 -3300 391 -7293 l385 -7259 -20 -32
c-47 -75 -149 -71 -192 8 -8 15 -142 2463 -399 7302 -349 6544 -387 7282 -373
7310 18 38 59 64 103 65 24 0 42 -9 66 -33z m15756 -2039 l206 -125 214 33
c118 18 226 35 240 38 23 4 41 -14 185 -193 l159 -198 240 -53 c132 -30 241
-54 243 -55 1 -1 39 -108 84 -238 l81 -237 213 -137 c208 -135 214 -139 209
-168 -2 -16 -7 -127 -10 -245 l-6 -215 150 -197 c83 -109 151 -204 151 -211 0
-8 -41 -106 -91 -218 -49 -112 -91 -211 -91 -219 -1 -8 31 -121 71 -250 l73
-235 -39 -34 c-21 -19 -99 -94 -174 -167 l-135 -133 -13 -213 c-7 -117 -15
-227 -17 -243 -5 -29 -13 -33 -227 -118 l-222 -87 -101 -212 -100 -213 -250
-5 -250 -5 -155 -140 c-85 -77 -164 -148 -176 -158 -21 -19 -25 -17 -250 69
-125 48 -235 87 -243 87 -8 -1 -109 -36 -225 -77 -115 -42 -214 -76 -220 -76
-5 0 -94 74 -196 164 l-187 163 -92 6 c-51 4 -134 7 -184 7 -50 0 -120 3 -157
6 l-65 7 -120 218 -119 218 -232 97 c-128 53 -233 100 -233 103 0 3 -16 113
-36 244 l-36 239 -71 67 c-40 37 -123 114 -184 171 -62 58 -113 110 -113 118
0 7 23 115 51 239 l51 226 -115 226 -116 226 134 193 c105 150 135 200 135
225 0 18 -11 122 -25 232 -14 110 -25 209 -25 220 0 15 49 51 196 145 108 69
198 129 201 134 3 4 32 110 64 233 32 124 60 227 62 229 2 2 102 22 223 45
120 22 227 42 236 45 9 3 80 90 158 194 78 105 145 190 149 190 3 0 113 -20
243 -45 l238 -46 202 121 c112 67 210 119 218 117 8 -2 108 -60 221 -129z
m-3431 -4249 c327 -82 624 -393 784 -822 38 -101 77 -240 96 -337 55 -283 53
-660 -6 -930 l-16 -75 -69 -50 c-348 -251 -747 -365 -1385 -395 -243 -11 -448
-13 -480 -4 -27 7 -95 157 -147 322 -167 527 -128 1151 104 1627 98 202 253
398 403 511 213 160 468 215 716 153z m4929 -3660 c25 -6 83 -29 129 -51 98
-48 199 -140 254 -233 35 -60 713 -1868 743 -1983 67 -258 -77 -559 -325 -680
-70 -34 -3281 -1234 -3570 -1334 -166 -57 -328 -47 -483 29 -91 46 -218 170
-264 258 -44 85 -643 1704 -699 1887 -43 146 -45 158 -41 248 9 202 125 386
311 495 36 21 3548 1332 3636 1357 99 29 206 31 309 7z"/>
<path d="M20095 21440 c-945 -108 -1686 -850 -1805 -1810 -15 -123 -12 -381 5
-515 46 -352 187 -696 402 -983 75 -99 247 -277 343 -355 288 -233 631 -382
996 -433 178 -24 484 -15 654 21 905 189 1560 946 1630 1883 18 232 -9 482
-76 715 -218 759 -841 1323 -1614 1458 -132 23 -410 33 -535 19z m-238 -1575
c325 -93 585 -161 725 -190 l70 -15 307 114 c168 62 335 121 371 130 152 37
339 40 440 5 113 -39 142 -114 81 -213 -28 -45 -127 -137 -181 -168 -58 -34
-409 -166 -1100 -416 l-555 -201 -375 -47 c-446 -56 -593 -62 -651 -27 -73 46
-79 137 -10 189 17 13 27 -4 -131 226 -121 176 -140 214 -120 245 7 12 153 73
174 73 6 0 133 -59 281 -131 l270 -132 136 2 136 2 142 52 c79 28 143 54 143
57 0 3 -167 90 -370 194 -388 197 -399 204 -372 253 12 21 183 91 228 92 16 1
179 -42 361 -94z"/>
<path d="M22215 13182 c-60 -38 -65 -51 -150 -397 -46 -185 -85 -338 -87 -340
-2 -2 -131 88 -287 200 -282 204 -321 226 -373 210 -70 -22 -126 -105 -114
-170 9 -45 32 -65 402 -332 176 -128 325 -238 331 -245 5 -7 45 -108 88 -225
82 -225 100 -254 165 -273 68 -20 158 28 180 95 14 43 10 57 -84 308 l-74 198
110 432 c100 392 109 435 99 469 -15 50 -60 81 -125 85 -38 3 -59 -1 -81 -15z"/>
<path d="M20815 12669 c-38 -34 -61 -95 -50 -137 3 -14 69 -194 146 -400 76
-207 137 -377 134 -380 -2 -2 -219 125 -481 283 -262 158 -499 295 -525 303
-61 20 -118 5 -166 -43 -26 -26 -33 -41 -33 -72 0 -44 416 -1180 448 -1222 32
-44 69 -64 114 -64 82 0 148 59 148 131 0 18 -65 209 -145 424 -80 215 -144
393 -142 394 2 2 219 -129 482 -290 264 -161 495 -298 514 -304 102 -36 202
15 218 111 5 31 -27 123 -212 624 -154 415 -226 596 -244 616 -37 41 -73 57
-125 57 -36 0 -52 -6 -81 -31z"/>
<path d="M19617 11986 c-101 -38 -184 -146 -247 -326 -13 -36 -25 -67 -26 -69
-2 -2 -29 20 -61 49 -240 220 -443 224 -524 10 -65 -172 42 -367 331 -599 182
-147 465 -330 482 -313 4 4 37 87 73 184 175 478 248 864 187 1000 -11 26 -30
52 -42 58 -35 19 -130 22 -173 6z"/>
<path d="M18190 11687 c-46 -24 -80 -74 -80 -118 0 -14 99 -293 220 -620 200
-539 224 -597 256 -628 34 -31 40 -33 93 -29 69 5 103 27 132 85 19 40 20 46
6 90 -27 94 -431 1168 -446 1190 -20 28 -71 53 -108 53 -17 0 -49 -10 -73 -23z"/>
</g>
</svg>
